<?xml version="1.0" encoding="UTF-8" standalone="no"?>
<!-- Generator: Adobe Illustrator 18.0.0, SVG Export Plug-In . SVG Version: 6.00 Build 0)  -->

<svg
   xmlns:dc="http://purl.org/dc/elements/1.1/"
   xmlns:cc="http://creativecommons.org/ns#"
   xmlns:rdf="http://www.w3.org/1999/02/22-rdf-syntax-ns#"
   xmlns:svg="http://www.w3.org/2000/svg"
   xmlns="http://www.w3.org/2000/svg"
   xmlns:sodipodi="http://sodipodi.sourceforge.net/DTD/sodipodi-0.dtd"
   xmlns:inkscape="http://www.inkscape.org/namespaces/inkscape"
   viewBox="0 0 33 38"
   xml:space="preserve"
   width="100%"
   height="100%"
   id="svg2985"
   version="1.1"
   inkscape:version="0.48.2 r9819"
   sodipodi:docname="cucumber-mark.svg"
   inkscape:export-filename="/Users/aslakhellesoy/github/cucumber-ltd/brand/png/cucumber-mark.png"
   inkscape:export-xdpi="400"
   inkscape:export-ydpi="400"><metadata
   id="metadata2992"><rdf:RDF><cc:Work
       rdf:about=""><dc:format>image/svg+xml</dc:format><dc:type
         rdf:resource="http://purl.org/dc/dcmitype/StillImage" /><dc:title></dc:title></cc:Work></rdf:RDF></metadata><defs
   id="defs2990" /><sodipodi:namedview
   pagecolor="#ffffff"
   bordercolor="#666666"
   borderopacity="1"
   objecttolerance="10"
   gridtolerance="10"
   guidetolerance="10"
   inkscape:pageopacity="0"
   inkscape:pageshadow="2"
   inkscape:window-width="1257"
   inkscape:window-height="856"
   id="namedview2988"
   showgrid="false"
   inkscape:zoom="12.421053"
   inkscape:cx="21.832292"
   inkscape:cy="18.719787"
   inkscape:window-x="38"
   inkscape:window-y="0"
   inkscape:window-maximized="0"
   inkscape:current-layer="svg2985" />

<g
   inkscape:groupmode="layer"
   id="layer1"
   inkscape:label="bubble"
   style="display:inline"><path
     style="fill:#00a818;fill-opacity:1;stroke:none;stroke-width:0.09999999000000000;stroke-linecap:butt;stroke-linejoin:miter;stroke-miterlimit:4;stroke-opacity:1;stroke-dasharray:none"
     d="m 16.4375,0.5625 c -9.0505334,0 -16.375,7.3244666 -16.375,16.375 0,7.968438 5.7120487,14.589408 13.25,16.0625 l 0,4.6875 C 23.112594,36.209998 31.789985,28.430631 32.4375,18.21875 32.82725,12.072053 29.762545,5.7970183 24.59375,2.75 24.297815,2.5755457 23.997146,2.4023576 23.6875,2.25 23.371984,2.0947542 23.047989,1.9434484 22.71875,1.8125 22.61424,1.7687818 22.511836,1.7291224 22.40625,1.6875 22.118693,1.5813485 21.828537,1.4618138 21.53125,1.375 19.928923,0.8468741 18.21606,0.5625 16.4375,0.5625 z"
     id="path3943"
     inkscape:connector-curvature="0" /></g><path
   style="fill:#ffffff;fill-opacity:1;stroke:none;stroke-width:0.10000000000000001;stroke-miterlimit:4;stroke-opacity:1;stroke-dasharray:none"
   d="M 19.8125 6.625 C 19.252344 6.5675781 18.6625 6.7625 18.25 7.25 C 17.95 7.65 17.7625 8.0375 17.5625 8.4375 C 16.9625 9.8375 17.1625 11.3375 18.0625 12.4375 C 19.4625 12.1375 20.65 11.24375 21.25 9.84375 C 21.45 9.44375 21.5625 8.93125 21.5625 8.53125 C 21.625 7.46875 20.746094 6.7207031 19.8125 6.625 z M 12.53125 6.71875 C 11.618164 6.8056641 10.75 7.53125 10.75 8.53125 C 10.75 8.93125 10.8625 9.44375 11.0625 9.84375 C 11.6625 11.24375 12.94375 12.1375 14.34375 12.4375 C 15.14375 11.3375 15.35 9.8375 14.75 8.4375 C 14.55 8.0375 14.3625 7.64375 14.0625 7.34375 C 13.65 6.85625 13.079102 6.6666016 12.53125 6.71875 z M 7.625 11.53125 C 6.0480957 11.612183 5.34375 13.59375 6.65625 14.625 C 7.05625 14.925 7.44375 15.14375 7.84375 15.34375 C 9.24375 15.94375 10.8625 15.7375 12.0625 14.9375 C 11.7625 13.6375 10.74375 12.44375 9.34375 11.84375 C 8.84375 11.64375 8.4375 11.53125 7.9375 11.53125 C 7.825 11.51875 7.730127 11.525854 7.625 11.53125 z M 23.03125 17.59375 C 22.115234 17.576172 21.1875 17.84375 20.4375 18.34375 C 20.7375 19.64375 21.75625 20.8375 23.15625 21.4375 C 23.65625 21.6375 24.0625 21.75 24.5625 21.75 C 26.3625 21.85 27.24375 19.625 25.84375 18.625 C 25.44375 18.325 25.05625 18.1375 24.65625 17.9375 C 24.13125 17.7125 23.580859 17.604297 23.03125 17.59375 z M 9.375 17.6875 C 8.8253906 17.698047 8.275 17.80625 7.75 18.03125 C 7.25 18.23125 6.8625 18.45 6.5625 18.75 C 5.2625 19.85 6.1375 21.94375 7.9375 21.84375 C 8.4375 21.84375 8.94375 21.73125 9.34375 21.53125 C 10.74375 20.93125 11.7375 19.7375 11.9375 18.4375 C 11.1875 17.9375 10.291016 17.669922 9.375 17.6875 z M 14.4375 20.75 C 13.0375 21.05 11.85 21.94375 11.25 23.34375 C 11.05 23.74375 10.9375 24.225 10.9375 24.625 C 10.8375 26.325 13.15625 27.2375 14.15625 25.9375 C 14.45625 25.5375 14.64375 25.15 14.84375 24.75 C 15.44375 23.45 15.2375 21.95 14.4375 20.75 z M 18.15625 20.84375 C 17.35625 21.94375 17.15 23.44375 17.75 24.84375 C 17.95 25.24375 18.1375 25.6375 18.4375 25.9375 C 19.5375 27.1375 21.85 26.25 21.75 24.75 C 21.75 24.35 21.6375 23.8375 21.4375 23.4375 C 20.8375 22.0375 19.55625 21.14375 18.15625 20.84375 z "
   id="rect4005" /></svg>